HIERARCHY
ROOT Hips
{
	OFFSET 0.00000 0.00000 0.00000
	CHANNELS 6 Xposition Yposition Zposition Zrotation Yrotation Xrotation 
	JOINT LHipJoint
	{
		OFFSET 0 0 0
		CHANNELS 3 Zrotation Yrotation Xrotation
		JOINT LeftHip
		{
			OFFSET 1.58161 -1.81893 0.78828
			CHANNELS 3 Zrotation Yrotation Xrotation
			JOINT LeftKnee
			{
				OFFSET 2.53374 -6.96141 0.00000
				CHANNELS 3 Zrotation Yrotation Xrotation
				JOINT LeftAnkle
				{
					OFFSET 2.63509 -7.23986 0.00000
					CHANNELS 3 Zrotation Yrotation Xrotation
					JOINT LeftToe
					{
						OFFSET 0.14115 -0.38781 2.05350
						CHANNELS 3 Zrotation Yrotation Xrotation
						End Site
						{
							OFFSET 0.00000 -0.00000 1.05543
						}
					}
				}
			}
		}
	}
	JOINT RHipJoint
	{
		OFFSET 0 0 0
		CHANNELS 3 Zrotation Yrotation Xrotation
		JOINT RightHip
		{
			OFFSET -1.11138 -1.81893 0.78828
			CHANNELS 3 Zrotation Yrotation Xrotation
			JOINT RightKnee
			{
				OFFSET -2.58392 -7.09926 0.00000
				CHANNELS 3 Zrotation Yrotation Xrotation
				JOINT RightAnkle
				{
					OFFSET -2.66423 -7.31992 0.00000
					CHANNELS 3 Zrotation Yrotation Xrotation
					JOINT RightToe
					{
						OFFSET -0.18831 -0.51739 2.12114
						CHANNELS 3 Zrotation Yrotation Xrotation
						End Site
						{
							OFFSET -0.00000 -0.00000 1.09845
						}
					}
				}
			}
		}
	}
	JOINT lowerback
	{
		OFFSET 0 0 0
		CHANNELS 3 Zrotation Yrotation Xrotation
		JOINT Chest
		{
			OFFSET -0.01511 1.97958 -0.08829
			CHANNELS 3 Zrotation Yrotation Xrotation
			JOINT Chest2
			{
				OFFSET 0.08344 1.97334 -0.04330
				CHANNELS 3 Zrotation Yrotation Xrotation
				JOINT lowerneck
				{
					OFFSET 0 0 0
					CHANNELS 3 Zrotation Yrotation Xrotation
					JOINT Neck
					{
						OFFSET 0.00559 1.76246 0.31246
						CHANNELS 3 Zrotation Yrotation Xrotation
						JOINT Head
						{
							OFFSET -0.07011 1.80354 -0.30524
							CHANNELS 3 Zrotation Yrotation Xrotation
							End Site
							{
								OFFSET -0.02385 1.83547 -0.13906
							}
						}
					}
				}
				JOINT LeftCollar
				{
					OFFSET 0 0 0
					CHANNELS 3 Zrotation Yrotation Xrotation
					JOINT LeftShoulder
					{
						OFFSET 3.20667 1.30156 -0.60240
CHANNELS 3 Zrotation Xrotation Yrotation
						JOINT LeftElbow
						{
OFFSET 0 -4.956630 0.000000
CHANNELS 3 Zrotation Xrotation Yrotation
							JOINT LeftWrist
							{
OFFSET 0 -3.381770 0.000000
CHANNELS 3 Zrotation Xrotation Yrotation
								JOINT lhand
								{
									OFFSET 0 0 0
CHANNELS 3 Zrotation Xrotation Yrotation
									JOINT LFingers
									{
OFFSET 0 -0.662910 0.000000
CHANNELS 3 Zrotation Xrotation Yrotation
										End Site
										{
OFFSET 0 -0.534450 0.000000
										}
									}
								}
								JOINT LThumb
								{
OFFSET 0 0.000000 0.000000
CHANNELS 3 Zrotation Xrotation Yrotation
									End Site
									{
OFFSET 0 -0.542610 0.542610
									}
								}
							}
						}
					}
				}
				JOINT RightCollar
				{
					OFFSET 0 0 0
					CHANNELS 3 Zrotation Yrotation Xrotation
					JOINT RightShoulder
					{
						OFFSET -3.06877 1.34672 -0.60964
CHANNELS 3 Zrotation Xrotation Yrotation
						JOINT RightElbow
						{
OFFSET 0 -5.083650 0.000000
CHANNELS 3 Zrotation Xrotation Yrotation
							JOINT RightWrist
							{
OFFSET 0 -3.359840 0.000000
CHANNELS 3 Zrotation Xrotation Yrotation
								JOINT rhand
								{
									OFFSET 0 0 0
CHANNELS 3 Zrotation Xrotation Yrotation
									JOINT RFingers
									{
OFFSET 0 -0.820760 0.000000
CHANNELS 3 Zrotation Xrotation Yrotation
										End Site
										{
OFFSET 0 -0.661720 0.000000
										}
									}
								}
								JOINT RThumb
								{
OFFSET 0 0.000000 0.000000
CHANNELS 3 Zrotation Xrotation Yrotation
									End Site
									{
OFFSET 0 -0.671820 0.671820
									}
								}
							}
						}
					}
				}
			}
		}
	}
}
MOTION
Frames: 6
Frame Time: .0083333
0.6146 15.5653 -3.8841 5.5317 18.0173 57.0624 0.0000 0.0000 0.0000 -6.2992 -21.3535 -102.6881 8.8560 16.7141 55.5907 -1.7840 -23.3424 3.7104 0.2087 2.9417 8.1164 0.0000 0.0000 0.0000 13.1302 -2.9046 -102.5583 -13.2413 -18.8675 69.8732 -1.0957 -2.0150 -20.5961 -0.2982 3.5111 -9.7051 7.8559 6.1930 30.8075 9.5005 9.8946 16.0313 3.3019 4.7905 1.1314 -3.9513 -10.7117 -15.0173 -4.5609 -13.2696 5.9028 -1.8201 -6.9433 4.0891 0.0000 0.0000 0.0000 22.9029 -15.4884 -76.9476 86.2999 -59.9482 56.7961 60.5012 56.5546 -19.2099 0.0 0.0 0.0 -7.1250 0.0 0.0 41.3263 60.2095 -17.0258 0.0000 0.0000 0.0000 -105.948 -59.6521 -60.6997 -13.3758 -21.8354 -2.5914 -55.4016 -30.0945 -21.0149 0.0 0.0 0.0 7.1250 0.0 -0.0 -15.9192 -2.9626 -17.3919
0.6284 15.5719 -3.8577 5.6010 17.9633 57.1863 0.0000 0.0000 0.0000 -6.3884 -21.4114 -102.6767 8.8680 16.7220 55.6324 -1.7841 -23.3731 3.5668 0.2154 2.9878 8.2448 0.0000 0.0000 0.0000 13.0303 -2.9360 -102.5010 -13.2147 -18.8583 69.7910 -1.1052 -2.1102 -20.7242 -0.3602 3.8555 -10.6706 7.7139 6.2362 30.9141 9.5101 9.9298 15.9878 3.3611 4.7952 1.0040 -3.9405 -10.7336 -15.0187 -4.6234 -13.2949 5.9279 -1.8430 -6.9593 4.0920 -0.0000 -0.0000 0.0000 22.938 -15.4826 -77.0218 86.7239 -59.9594 57.1632 60.7699 56.6224 -19.2685 0.0 0.0 0.0 -7.1250 0.0 0.0 41.9053 60.385 -17.4948 -0.0000 -0.0000 0.0000 -106.086 -59.6861 -61.0251 -13.2464 -21.6471 -2.5434 -55.5738 -30.0405 -21.0116 0.0 0.0 0.0 7.1250 0.0 -0.0 -16.0145 -3.0572 -17.5301
0.6565 15.5315 -3.8510 5.7936 18.2774 58.0871 0.0000 0.0000 0.0000 -5.8264 -21.9167 -103.7115 8.8934 16.7387 55.7209 -1.7642 -23.2221 3.6871 0.2205 3.0227 8.3420 0.0000 0.0000 0.0000 13.1423 -3.1304 -103.5394 -13.2480 -18.8699 69.8941 -1.0994 -2.2778 -20.7489 -0.4414 4.2629 -11.8175 8.0855 6.0702 29.9906 9.4825 9.7397 15.8247 3.2601 4.7379 1.2954 -3.9624 -10.7611 -14.8277 -4.6078 -13.3496 5.7624 -1.8214 -6.9826 4.0127 -0.0000 0.0000 0.0000 22.9512 -15.4863 -77.1079 87.0296 -59.9666 57.4278 60.74 55.9824 -18.9222 0.0 0.0 0.0 -7.1250 0.0 0.0 41.4320 59.9241 -16.7917 -0.0000 0.0000 0.0000 -106.1904 -59.6804 -61.3339 -13.1660 -21.53 -2.5139 -55.8799 -29.5891 -20.7705 0.0 0.0 0.0 7.1250 0.0 -0.0 -16.2496 -2.9018 -17.7668
0.6617 15.5506 -3.8264 5.4230 18.1641 57.9796 0.0000 0.0000 0.0000 -5.7667 -21.5253 -103.6439 8.9011 16.7437 55.7475 -1.7711 -23.3020 3.5136 0.2083 2.9384 8.1072 0.0000 0.0000 0.0000 13.2658 -2.7569 -103.2444 -13.2164 -18.8589 69.7962 -1.1154 -2.5178 -21.0042 -0.5728 4.8468 -13.4721 7.9166 6.1965 30.2341 9.4660 9.8690 15.8460 3.2735 4.7839 1.1826 -3.7358 -10.6775 -14.6955 -4.7304 -13.2950 5.4958 -1.8655 -6.9549 3.8870 0.0000 -0.0000 0.0000 23.0969 -15.3576 -76.9473 87.3322 -59.9731 57.6899 60.8057 56.5016 -19.6065 0.0 0.0 0.0 -7.1250 0.0 0.0 42.3888 60.8329 -18.1989 0.0000 -0.0000 0.0000 -106.2655 -59.9133 -61.6893 -13.1611 -21.5228 -2.5121 -56.2958 -29.5415 -20.6567 0.0 0.0 0.0 7.1250 0.0 -0.0 -16.5089 -2.988 -18.0993
0.6780 15.5380 -3.8115 5.5967 18.3316 58.4509 0.0000 0.0000 0.0000 -5.5843 -21.8301 -104.0495 8.8965 16.7406 55.7313 -1.7668 -23.2846 3.4667 0.1996 2.8771 7.9369 0.0000 0.0000 0.0000 13.2562 -2.9054 -103.6641 -13.2200 -18.8602 69.8074 -1.1218 -2.6137 -21.1063 -0.6087 4.9936 -13.8904 8.0494 6.0805 29.8243 9.4238 9.7220 15.8014 3.2332 4.7298 1.3458 -3.5584 -10.6855 -14.7967 -4.8819 -13.3239 5.5098 -1.9430 -6.9756 3.8849 -0.0000 -0.0000 0.0000 23.1139 -15.3854 -76.8865 87.4575 -59.9756 57.7983 60.2778 53.5015 -18.0501 0.0 0.0 0.0 -7.1250 0.0 0.0 39.5931 58.597 -14.6056 -0.0000 -0.0000 0.0000 -106.2969 -60.0418 -61.9539 -13.1926 -21.5688 -2.5237 -56.7046 -30.1155 -20.7011 0.0 0.0 0.0 7.1250 0.0 -0.0 -16.7191 -3.2944 -18.4367
0.6872 15.5503 -3.7935 5.5842 18.3803 58.5437 0.0000 0.0000 0.0000 -5.5275 -21.8661 -104.0096 8.8713 16.7242 55.6441 -1.7622 -23.2466 3.5068 0.2116 2.9618 8.1725 0.0000 0.0000 0.0000 13.2523 -2.8788 -103.5986 -13.1778 -18.8454 69.6769 -1.1191 -2.6564 -21.1033 -0.5485 4.7445 -13.1813 8.0867 6.1328 29.7535 9.4952 9.7893 15.8018 3.2805 4.7610 1.3707 -3.5907 -10.7608 -14.6263 -4.8706 -13.4305 5.4891 -1.9319 -7.0256 3.8534 -0.0000 0.0000 0.0000 22.9701 -15.3776 -77.0673 87.3496 -59.9734 57.7049 60.1139 53.2431 -18.0918 0.0 0.0 0.0 -7.1250 0.0 0.0 39.3525 58.5913 -14.4924 -0.0000 0.0000 0.0000 -106.2049 -59.9133 -61.8655 -13.1908 -21.5661 -2.523 -56.9167 -31.144 -20.9601 0.0 0.0 0.0 7.1250 0.0 -0.0 -16.7610 -3.7849 -18.6241
